<?xml version="1.0" standalone="no"?>
<!DOCTYPE svg PUBLIC "-//W3C//DTD SVG 20010904//EN"
 "http://www.w3.org/TR/2001/REC-SVG-20010904/DTD/svg10.dtd">
<svg version="1.0" xmlns="http://www.w3.org/2000/svg"
 width="98.000000pt" height="99.000000pt" viewBox="0 0 98.000000 99.000000"
 preserveAspectRatio="xMidYMid meet">

<g transform="translate(0.000000,99.000000) scale(0.100000,-0.100000)"
fill="#000000" stroke="none">
<path d="M429 973 c-15 -3 -15 -11 -4 -63 l12 -60 -54 -25 c-30 -14 -59 -23
-63 -20 -5 3 -21 25 -37 50 -15 25 -31 45 -35 45 -11 0 -76 -60 -98 -90 l-19
-27 50 -34 c49 -34 51 -38 34 -84 -4 -11 6 0 22 25 34 52 78 92 137 123 32 17
59 22 121 22 69 0 88 -4 139 -30 59 -30 127 -100 141 -146 4 -11 9 -18 12 -16
2 3 -3 19 -11 36 l-16 31 50 32 c27 18 50 38 50 45 0 12 -99 113 -111 113 -4
0 -21 -23 -39 -50 -18 -28 -35 -49 -39 -48 -3 2 -30 12 -58 23 -29 11 -53 24
-53 30 0 5 6 33 14 62 13 50 13 51 -8 57 -24 6 -112 6 -137 -1z"/>
<path d="M412 771 c-61 -21 -114 -67 -145 -126 -29 -56 -30 -165 0 -220 77
-147 257 -189 385 -92 162 123 116 385 -76 442 -64 19 -99 18 -164 -4z m132
-130 l-11 -40 46 -3 46 -3 1 -55 c1 -30 0 -67 -3 -82 l-5 -28 -89 0 c-56 0
-90 4 -95 12 -5 7 -10 4 -16 -11 -6 -18 -14 -22 -45 -19 l-38 3 4 75 c4 84 13
102 50 98 24 -3 26 -7 32 -68 l6 -65 1 56 c2 47 8 66 37 108 19 28 35 54 35
59 0 4 5 13 12 20 10 10 15 9 27 -3 12 -12 13 -22 5 -54z"/>
<path d="M57 579 c-4 -28 -4 -70 -1 -93 l6 -42 52 13 c28 8 58 12 66 10 13 -3
16 8 15 67 l0 71 -53 2 c-29 0 -59 6 -66 12 -11 9 -14 1 -19 -40z"/>
<path d="M795 535 c0 -54 1 -91 3 -81 3 14 11 16 50 10 92 -15 87 -19 87 71 0
57 -3 79 -12 78 -7 -2 -37 -6 -67 -9 -47 -6 -54 -4 -58 12 -1 9 -3 -27 -3 -81z"/>
<path d="M200 440 c1 -8 7 -26 15 -40 22 -38 19 -45 -35 -80 -59 -38 -58 -43
22 -115 35 -31 54 -43 57 -33 2 7 17 32 33 56 20 29 35 42 45 38 9 -4 -8 15
-37 41 -31 28 -63 69 -76 98 -13 27 -24 43 -24 35z"/>
<path d="M720 329 c-77 -86 -209 -121 -315 -84 -44 16 -63 11 -21 -5 15 -5 31
-10 36 -10 17 0 18 -16 5 -72 -15 -67 -14 -68 73 -68 82 0 88 7 74 70 -15 66
-15 70 3 70 9 0 33 9 55 20 22 11 41 20 44 20 2 0 20 -25 39 -55 l34 -55 57
55 c32 30 56 61 54 67 -2 7 -25 27 -51 43 -26 17 -45 36 -42 43 7 18 4 16 -45
-39z"/>
</g>
</svg>
