<?xml version="1.0" standalone="no"?>
<!DOCTYPE svg PUBLIC "-//W3C//DTD SVG 20010904//EN"
 "http://www.w3.org/TR/2001/REC-SVG-20010904/DTD/svg10.dtd">
<svg version="1.0" xmlns="http://www.w3.org/2000/svg"
 width="99.000000pt" height="99.000000pt" viewBox="0 0 99.000000 99.000000"
 preserveAspectRatio="xMidYMid meet">
<metadata>
Created by potrace 1.16, written by Peter Selinger 2001-2019
</metadata>
<g transform="translate(0.000000,99.000000) scale(0.100000,-0.100000)"
fill="#000000" stroke="none">
<path d="M440 682 c-98 -99 -138 -149 -149 -189 -26 -93 73 -164 163 -118 16
9 31 13 33 11 9 -9 -27 -112 -47 -133 -11 -12 -20 -25 -20 -28 0 -3 44 -5 97
-5 l96 0 -21 23 c-26 28 -52 88 -52 122 0 25 0 25 32 9 46 -24 106 -13 141 26
56 63 31 124 -107 258 -52 50 -96 91 -98 91 -2 -1 -32 -31 -68 -67z"/>
</g>
</svg>
