<?xml version="1.0" standalone="no"?>
<!DOCTYPE svg PUBLIC "-//W3C//DTD SVG 20010904//EN"
 "http://www.w3.org/TR/2001/REC-SVG-20010904/DTD/svg10.dtd">
<svg version="1.0" xmlns="http://www.w3.org/2000/svg"
 width="76.000000pt" height="76.000000pt" viewBox="0 0 76.000000 76.000000"
 preserveAspectRatio="xMidYMid meet">
<metadata>
Created by potrace 1.16, written by Peter Selinger 2001-2019
</metadata>
<g transform="translate(0.000000,76.000000) scale(0.100000,-0.100000)"
fill="#ff0000" stroke="none">
<path d="M194 556 c-66 -29 -99 -107 -70 -168 9 -18 72 -89 140 -157 l125
-124 112 114 c61 63 122 129 135 148 29 42 31 94 4 138 -24 41 -54 56 -107 56
-36 0 -51 -7 -92 -41 -27 -23 -54 -42 -58 -42 -5 0 -22 14 -39 31 -28 31 -81
59 -106 59 -7 -1 -27 -7 -44 -14z"/>
</g>
</svg>
