<?xml version="1.0" standalone="no"?>
<!DOCTYPE svg PUBLIC "-//W3C//DTD SVG 20010904//EN"
 "http://www.w3.org/TR/2001/REC-SVG-20010904/DTD/svg10.dtd">
<svg version="1.0" xmlns="http://www.w3.org/2000/svg"
 width="93.000000pt" height="93.000000pt" viewBox="0 0 93.000000 93.000000"
 preserveAspectRatio="xMidYMid meet">
<metadata>
Created by potrace 1.16, written by Peter Selinger 2001-2019
</metadata>
<g transform="translate(0.000000,93.000000) scale(0.100000,-0.100000)"
fill="#000000" stroke="none">
<path d="M434 646 c-73 -32 -86 -108 -29 -176 42 -50 45 -69 8 -42 -42 29 -78
34 -117 18 -49 -20 -70 -56 -63 -109 12 -88 103 -116 185 -56 38 27 42 29 42
11 0 -28 -20 -83 -42 -114 l-19 -28 82 0 82 0 -21 22 c-21 23 -34 51 -46 101
-8 34 5 35 48 2 92 -70 216 14 173 117 -20 49 -76 74 -127 59 -21 -6 -43 -18
-50 -26 -7 -8 -17 -15 -22 -15 -11 0 8 36 38 73 47 56 25 142 -43 168 -31 12
-41 11 -79 -5z"/>
</g>
</svg>
